<?xml version="1.0" encoding="UTF-8"?>
<!DOCTYPE svg PUBLIC "-//W3C//DTD SVG 1.1//EN" "http://www.w3.org/Graphics/SVG/1.1/DTD/svg11.dtd">
<!-- Creator: CorelDRAW X8 -->
<svg xmlns="http://www.w3.org/2000/svg" xml:space="preserve" width="42.3289mm" height="13.7414mm" version="1.1" style="shape-rendering:geometricPrecision; text-rendering:geometricPrecision; image-rendering:optimizeQuality; fill-rule:evenodd; clip-rule:evenodd"
viewBox="0 0 3169 1029"
 xmlns:xlink="http://www.w3.org/1999/xlink">
 <defs>
  <style type="text/css">
   <![CDATA[
    .fil0 {fill:url(#id0);fill-rule:nonzero}
   ]]>
  </style>
  <linearGradient id="id0" gradientUnits="userSpaceOnUse" x1="-0" y1="514.436" x2="3169.33" y2="514.436">
   <stop offset="0" style="stop-opacity:1; stop-color:#ED2F5A"/>
   <stop offset="1" style="stop-opacity:1; stop-color:#7457A2"/>
  </linearGradient>
 </defs>
 <g id="Camada_x0020_1">
  <metadata id="CorelCorpID_0Corel-Layer"/>
  <path class="fil0" d="M218 367l2 -6c1,-4 2,-8 3,-13 1,-6 3,-10 4,-14 1,-5 2,-9 2,-13 4,-21 7,-35 9,-43 1,-8 3,-21 5,-38 3,-18 5,-31 6,-40 3,-11 5,-19 5,-25 2,-4 3,-10 4,-19 2,-8 3,-14 5,-18 2,-10 5,-17 7,-22 1,-1 3,-8 6,-21 2,-4 4,-11 9,-23 4,-11 7,-20 10,-26 1,-4 4,-10 8,-17 3,-3 5,-5 5,-7 1,-6 5,-10 13,-13 7,-2 15,-3 23,-3 11,2 19,11 24,25 3,8 6,30 9,68 2,19 3,49 4,88 1,5 2,13 4,22 1,10 2,18 2,22 2,25 3,38 3,39 0,10 2,26 3,46 2,20 3,35 4,45 3,32 5,56 7,72 2,11 4,27 9,47 0,7 -2,12 -8,15 0,1 -3,3 -7,5 -6,-2 -10,-3 -11,-4 -4,-2 -6,-3 -7,-4l-16 -17c-2,-2 -3,-6 -3,-12 -1,-3 -2,-8 -4,-15 0,-5 0,-10 -1,-13 -1,-21 -2,-36 -4,-45l-6 -56c0,-4 0,-10 0,-17 0,-8 0,-13 -1,-17 -1,-21 -3,-52 -5,-92 0,-4 -1,-10 -1,-19 -1,-9 -1,-16 -1,-21 -2,-13 -3,-33 -4,-60l0 -37c-1,-2 -2,-4 -2,-6 0,-2 -1,-4 -1,-6 -4,5 -7,9 -7,14 0,4 -1,10 -4,19 -1,2 -2,7 -4,13 -2,6 -4,10 -5,13 0,0 0,1 0,2l-2 2c0,2 -3,21 -11,57 -5,29 -9,51 -10,67 -2,9 -5,25 -9,47 -5,29 -9,51 -12,65 -2,10 -6,26 -10,46 -5,21 -8,37 -10,47 -4,21 -7,36 -9,46 -2,5 -5,12 -9,22 -2,7 -8,10 -16,8 -1,0 -2,0 -4,0 -2,0 -3,-1 -4,-1 -2,0 -5,-1 -7,-4 -2,-3 -4,-5 -5,-6 -5,-2 -8,-6 -9,-13 0,-22 -1,-41 -4,-58 -1,-6 -2,-15 -2,-26 -1,-11 -1,-19 -2,-23 -1,-4 -2,-11 -3,-21 0,-6 -1,-16 -2,-28 -1,-13 -1,-23 -2,-30 0,-4 0,-11 0,-20 0,-9 -1,-16 -1,-21 0,-3 0,-6 -1,-9 0,-4 -1,-8 -1,-12 -1,-5 -1,-8 -1,-10l-3 -50c-2,-20 -3,-34 -5,-44 -2,-23 -5,-46 -9,-69 0,-1 -1,-4 -2,-8 -2,2 -5,6 -8,13 -9,20 -18,48 -29,85 -2,7 -4,17 -7,31 -4,14 -6,24 -7,29 -2,7 -4,17 -7,30 -4,14 -6,24 -8,31 -7,28 -12,49 -15,63 -1,2 -4,17 -10,46 0,7 -2,16 -4,27 -2,12 -3,21 -4,28 -1,3 -2,8 -4,14 -2,5 -3,9 -3,12 -2,3 -4,9 -7,17 -2,9 -6,13 -11,15 -10,2 -17,-1 -22,-9 1,-6 2,-10 2,-12 3,-19 5,-37 6,-56 2,-10 4,-28 9,-54 1,-6 3,-14 5,-24 3,-10 4,-18 5,-23 1,-2 2,-4 3,-7 1,-2 1,-4 1,-5 6,-19 9,-34 10,-43 0,-2 1,-5 3,-9 1,-4 2,-7 2,-9 3,-11 6,-26 10,-47 3,-17 6,-29 10,-36 1,-2 3,-7 4,-14 2,-6 3,-11 4,-14 1,-2 2,-5 3,-10 2,-4 3,-8 3,-11l19 -56c3,-7 10,-17 21,-28 3,-4 7,-5 12,-5 9,-1 19,-1 30,0 4,0 8,3 12,10 2,4 7,16 14,34 3,10 5,16 5,18 0,2 2,23 6,65 3,20 5,34 5,43 1,6 2,16 3,29 1,13 2,23 2,30 1,2 2,5 2,8 0,3 0,5 1,7 0,0 0,2 0,4 0,2 1,4 1,5 1,28 2,49 4,65 0,2 0,4 1,6zm2221 540l609 -54 -609 -48c-93,0 -90,102 0,102zm-1733 0l-609 -54 609 -48c93,0 90,102 0,102zm256 -183c2,15 3,24 3,25 1,8 2,19 2,34 0,15 1,25 1,31 0,7 1,17 2,31 2,13 2,23 3,30l2 44c1,17 2,30 3,38 0,8 1,22 3,41 0,13 0,20 0,22 -1,3 -3,4 -5,5 -3,0 -5,-1 -7,-2 -1,-1 -2,-3 -3,-5 -1,-1 -1,-3 -2,-5 -1,-1 -1,-3 -2,-4 0,-1 -1,-6 -2,-14 -2,-25 -3,-43 -4,-53 -1,-16 -2,-39 -3,-70 0,-10 -1,-25 -3,-44 -2,-26 -3,-46 -3,-59 0,-16 0,-28 -1,-37 0,0 0,-1 0,-2 0,-2 0,-3 0,-4 -5,0 -13,0 -23,1 -10,0 -17,0 -22,0 -7,0 -13,-1 -16,-2 -7,-2 -12,-6 -15,-13 0,-1 -1,-2 -1,-3 -1,-1 -1,-1 -1,-2 -1,-1 -1,-3 -1,-5 0,-1 1,-1 1,-1 17,1 33,0 48,-2l7 0c7,0 17,-1 30,-4 4,-1 11,-3 20,-5 9,-3 15,-5 19,-6 12,-2 20,-3 23,-2 4,6 6,12 7,18 0,3 -2,6 -6,9l-4 3c-7,1 -16,4 -28,8 -4,1 -9,2 -16,3 -3,1 -5,1 -6,1zm276 141c-2,-1 -6,-1 -10,-3 -5,-1 -8,-2 -12,-2 -4,-1 -7,-1 -10,-1 -13,3 -25,2 -36,0 -2,0 -4,-1 -6,-1 -2,-1 -4,-1 -5,-1 0,2 -1,4 -1,7 0,19 -1,34 -1,44l-2 29c0,2 0,3 0,5 -1,2 -1,4 -1,5 0,3 0,9 0,17 0,8 0,15 0,19 -1,10 -3,21 -5,30 0,2 0,4 -2,5 -1,2 -3,3 -6,3 -8,-1 -14,-7 -17,-16 0,-1 0,-1 0,-1 -2,-4 -3,-11 -2,-21 2,-10 2,-18 2,-27 1,-11 2,-27 3,-47 1,-5 1,-13 2,-23 1,-10 1,-18 1,-23 0,-10 1,-25 2,-44 0,-20 1,-34 1,-44 1,-10 2,-25 4,-45 1,-8 3,-23 8,-44 0,-3 1,-6 1,-9 10,2 18,7 23,16 1,5 1,8 1,10 -1,4 -2,11 -3,19 -2,9 -2,16 -3,20 -2,20 -3,36 -3,50 0,4 0,7 0,11 0,4 -1,8 -1,12 -1,5 -1,8 -1,10l0 10c0,1 1,2 1,3 1,1 2,2 3,1 7,0 12,0 16,-1 2,0 4,0 7,-1 4,0 6,-1 8,-1l13 2c2,1 5,1 9,2 4,1 7,1 9,2 3,0 7,-1 12,-4 1,-1 2,-2 2,-3 2,-18 2,-28 2,-28 1,-6 1,-16 2,-29 1,-13 1,-22 2,-29 0,-3 1,-8 1,-14 1,-6 1,-11 1,-14 1,-6 2,-15 3,-28 0,-1 0,-4 -1,-8l0 -3c9,0 17,4 25,10 3,3 5,7 4,12 0,0 -1,11 -2,32 -1,4 -1,9 -2,17 0,8 -1,14 -1,18 -1,4 -1,9 -1,15 0,7 0,12 -1,16 0,9 0,22 0,40 -1,6 -2,11 -2,14 -1,11 -1,28 0,51l0 25c0,3 0,7 0,12 0,5 0,9 0,12 0,1 1,4 1,8 1,4 1,6 1,8 0,5 1,12 3,21 1,3 2,7 3,13 1,6 2,10 3,14 1,6 -1,9 -7,9 -4,0 -8,-2 -12,-6 -1,-1 -2,-3 -5,-7 -2,-4 -4,-7 -6,-8 -1,-1 -2,-2 -2,-3 -2,-14 -4,-23 -5,-29 -1,-5 -2,-11 -3,-20 -1,-19 -2,-49 -2,-88l0 -3zm170 -154l0 14c0,5 0,13 0,23 0,11 0,19 1,24l2 23c0,3 0,7 0,12 1,5 1,8 1,10 0,5 1,8 1,9 1,0 4,0 8,0 7,-1 18,-1 33,-1 2,-1 5,-1 9,-2 4,0 8,0 9,0 2,0 3,0 3,1 2,1 3,2 5,3 1,0 3,0 5,1 2,0 4,0 5,1 4,1 6,3 7,6 1,3 0,6 -3,9 -1,1 -3,2 -5,2 -3,0 -8,0 -15,0 -6,0 -11,-1 -15,-1 -2,0 -5,1 -9,1 -4,0 -7,0 -9,0 -2,1 -6,1 -10,1 -4,0 -7,0 -10,0 0,0 -1,0 -3,0 -2,-1 -3,-1 -4,-1l0 4c0,5 0,12 1,23 1,4 2,12 3,23 0,5 1,12 2,21 1,9 2,16 3,20 3,17 6,29 10,36 3,7 6,11 10,14 8,6 15,11 20,13 2,0 4,1 4,1 18,2 32,3 41,5 1,0 3,0 6,1 3,1 5,2 5,2 4,1 6,1 7,1 3,0 6,1 7,3 2,2 3,5 3,7 -1,3 -3,4 -6,5 -3,2 -6,2 -8,2 -6,-1 -14,-2 -25,-3 -10,-1 -18,-2 -23,-2 -12,-1 -24,-6 -37,-16 -10,-9 -17,-16 -20,-23 -8,-17 -13,-32 -16,-46 -3,-12 -5,-24 -6,-38 0,-3 -1,-8 -2,-15 0,-7 -1,-12 -1,-15 -1,-8 -2,-21 -4,-39l0 -26c0,-5 0,-11 -1,-19 -1,-9 -2,-15 -2,-19 0,-8 0,-19 0,-34 -1,-7 -1,-17 -1,-31 0,-5 -1,-9 -4,-10 1,-3 3,-3 6,-3 3,2 8,2 15,1 6,0 15,-1 27,-3 5,-1 12,-2 21,-2 9,0 15,-1 18,-1 2,0 6,0 10,-1 5,-1 8,-1 11,-2 0,0 2,0 6,0l6 0 2 0c0,1 4,3 11,6 4,3 6,6 6,10 1,4 -1,7 -6,8 -11,2 -27,3 -49,3 -3,0 -7,0 -13,1 -6,0 -10,0 -13,0 -3,0 -7,0 -14,1 -6,0 -11,1 -14,1 -1,0 -2,0 -2,1zm312 -21c1,-1 3,-3 5,-5 2,-2 4,-3 6,-4 1,1 4,2 8,4 4,2 7,3 9,4l19 11c5,3 11,7 16,12 7,6 14,16 23,28 7,9 12,17 14,23 3,8 4,13 5,15 6,16 9,29 9,37 1,4 1,10 1,16 0,4 0,6 1,7 2,8 3,23 2,44 -1,13 -3,29 -8,48 -4,15 -9,29 -14,41 -7,19 -19,33 -34,42 -18,11 -37,15 -56,11 -3,-1 -9,-3 -16,-6 -13,-6 -25,-12 -37,-18 -6,-4 -16,-12 -29,-25 -12,-11 -22,-25 -32,-45 -6,-10 -11,-23 -16,-40 -4,-15 -6,-29 -6,-43 0,-23 1,-40 3,-51l4 -15c4,-10 11,-22 21,-37l1 -1 1 -1c0,-3 1,-5 2,-6 1,-2 3,-4 5,-6 2,-2 3,-3 4,-4 0,0 1,-1 3,-2 1,0 1,-1 2,-1 0,-1 1,-1 1,-1 1,-3 6,-8 15,-16 8,-6 17,-12 28,-18 8,-4 16,-6 23,-4 2,0 4,0 6,2 2,1 3,2 5,3 1,1 3,1 6,1zm8 8c0,0 1,1 1,2l1 1c1,8 -1,13 -8,13 -5,0 -11,1 -17,3 -6,2 -13,6 -21,11 -13,9 -23,18 -30,26 -13,14 -23,29 -29,44 -5,11 -8,19 -8,25 -1,15 -2,26 -2,33 0,16 2,31 6,44 7,21 20,43 40,64 11,13 27,24 49,33 6,3 12,3 18,2 10,-3 18,-6 21,-8 11,-5 20,-13 28,-26 3,-4 6,-11 10,-22 5,-11 8,-25 10,-42 1,-4 2,-10 4,-17 3,-18 4,-34 1,-48 -1,-5 -2,-11 -2,-18 0,-11 -1,-22 -4,-32 -1,-3 -2,-8 -4,-15 -3,-6 -4,-12 -6,-16 -2,-7 -5,-13 -8,-16 -4,-5 -11,-11 -20,-20 -3,-2 -6,-4 -11,-6 -5,-2 -9,-5 -11,-8 -3,-4 -5,-6 -8,-7zm185 214c0,1 -1,9 -2,23 -1,15 -2,26 -3,33 0,6 0,15 0,28 -1,12 -1,21 -1,27 -9,4 -16,2 -20,-7 -3,-4 -5,-6 -6,-7 -1,-1 -2,-3 -2,-6 0,-16 0,-28 1,-36 0,-12 1,-29 3,-51 1,-14 1,-33 2,-59 1,-13 0,-42 -2,-86 -1,-11 -3,-29 -5,-52 0,-1 0,-3 -1,-6 0,-2 -1,-4 -1,-5 1,0 2,0 3,-1 1,0 2,-1 2,-1l4 -2c4,-4 13,-9 25,-16 10,-4 16,-6 18,-6 16,-2 29,-1 38,3 2,0 3,0 4,1 15,2 27,8 36,17 10,10 18,21 23,33 8,22 8,42 -1,60 -7,12 -15,25 -25,36 -7,9 -15,16 -24,22 -7,5 -11,9 -14,11 2,1 3,2 5,2 6,2 16,9 30,20 9,8 16,17 21,26 2,4 6,10 10,17 5,7 8,12 10,15 11,17 19,36 23,56l2 6c0,3 -1,6 -3,7 -3,2 -5,2 -8,0 -5,-3 -8,-7 -8,-11 -1,-2 -2,-4 -4,-7 -3,-4 -5,-11 -7,-20 0,-3 -2,-7 -4,-11 -1,-1 -2,-3 -4,-7 -1,-3 -2,-5 -3,-7 -2,-4 -4,-8 -6,-12 -3,-4 -6,-8 -9,-13 -3,-5 -6,-9 -7,-12 -5,-7 -13,-16 -24,-25 -5,-5 -10,-6 -15,-3 -14,6 -23,10 -26,11 -7,3 -13,7 -17,12 0,0 -3,2 -8,4l0 -1zm0 -44c3,-3 7,-7 13,-11 2,-2 4,-5 8,-8 3,-3 6,-6 9,-9 3,-2 6,-5 9,-7 2,-2 6,-6 11,-10 5,-5 9,-8 12,-10 3,-3 9,-12 19,-25 9,-14 14,-27 15,-38 1,-9 0,-18 -5,-26 -4,-8 -10,-13 -19,-16 -5,-2 -13,-4 -24,-6 -8,-1 -17,1 -30,5 -10,4 -17,7 -23,11 -1,1 -2,3 -2,5 0,3 0,7 0,13 1,6 1,10 1,13 1,4 1,9 2,16 0,7 1,13 1,18 1,6 1,11 1,16l2 51 0 18zm310 161l-8 -21c-1,-1 -1,-5 -1,-13 0,-6 0,-16 0,-29 1,-12 1,-22 1,-29 0,-36 0,-64 1,-82 0,-2 -1,-5 -2,-8 -8,-17 -14,-28 -16,-33 -8,-19 -13,-34 -16,-45 -4,-10 -7,-20 -8,-31 -3,-17 -7,-32 -12,-46 -1,-1 -2,-2 -3,-4 -1,-1 -1,-2 -2,-2 0,-1 0,-1 -1,-2 0,-1 -1,-1 -1,-2 -1,-1 -1,-2 -2,-3l5 0 13 5c5,3 9,7 10,10 5,11 9,23 13,36l6 29c1,5 4,13 8,23l12 33c0,1 1,2 1,4 1,1 2,2 2,3 0,0 1,-1 2,-1l2 -1c8,-10 13,-19 16,-26 2,-4 3,-10 5,-18 3,-8 4,-13 5,-16l8 -33c1,-4 3,-9 4,-17 2,-7 3,-13 4,-17 2,-7 4,-14 8,-18l4 2c2,1 4,2 8,2 3,0 8,2 13,7 1,2 1,4 0,7 -2,3 -3,7 -4,13l-8 29c-1,1 -1,3 -1,5 0,2 0,3 0,4 0,1 -1,5 -3,12 -2,7 -3,12 -4,16l-8 32c-3,9 -7,17 -11,25 -3,7 -8,12 -13,16 -5,4 -7,9 -7,14 0,5 -1,11 -1,20 -1,8 -1,15 -1,19 0,6 0,15 1,27 0,12 0,21 0,27 0,27 0,47 -1,60l0 17 -18 0zm-1681 -1015c12,-7 23,-7 34,-1 7,3 11,10 12,19 1,8 2,20 4,35 3,16 4,27 6,35 2,24 4,41 5,53 3,32 4,56 5,72 1,7 1,18 1,31 0,14 0,25 1,32 2,18 3,31 4,39 0,5 1,9 1,13 1,5 2,10 3,16 1,5 2,9 3,12 1,11 4,21 9,30 2,3 6,9 11,18 5,10 9,17 13,21 18,23 42,42 71,55 5,2 8,1 11,-2 1,-2 2,-5 4,-9 3,-4 4,-6 6,-8 1,-2 2,-4 3,-6 0,-3 1,-6 1,-9 1,-3 1,-5 2,-7 3,-7 5,-13 5,-18 1,-7 1,-18 1,-32 1,-9 1,-22 1,-40 0,-23 0,-40 1,-51 0,-32 1,-56 1,-72 0,-4 1,-11 1,-21 1,-10 1,-17 1,-21 1,-10 1,-24 1,-44 1,-5 2,-12 3,-22 1,-9 2,-17 2,-22 4,-37 7,-65 9,-83 0,-3 1,-9 2,-16 0,-2 1,-3 3,-4 2,0 5,-1 9,-2 3,-1 6,-2 8,-3 8,-3 16,-3 23,0 5,4 8,8 7,13 0,21 -2,42 -6,63 -2,9 -3,24 -4,45 -2,12 -4,39 -6,81 0,7 0,15 0,23 0,8 -1,17 -2,26 0,10 -1,18 -1,23l-3 122c0,14 -3,34 -8,59 -1,2 -2,5 -2,8 -1,4 -1,7 -1,9 -5,16 -15,30 -31,42 -3,3 -9,5 -18,6 -18,1 -34,-3 -49,-11 -3,-2 -7,-5 -13,-8 -6,-2 -11,-4 -13,-6 -9,-4 -21,-13 -36,-26 -15,-14 -27,-26 -34,-37 -5,-6 -9,-13 -13,-21 -12,-21 -19,-40 -20,-55 -3,-16 -5,-29 -6,-39 -2,-20 -4,-34 -4,-43 -3,-53 -4,-93 -5,-118 0,-12 -1,-31 -4,-56 -1,-8 -2,-21 -3,-38 -2,-18 -3,-31 -4,-39 -1,-6 -2,-9 -2,-11zm691 375c1,-3 0,-9 -1,-19 -6,-18 -17,-40 -34,-66 -6,-9 -19,-25 -40,-48 -18,-16 -31,-29 -39,-39 -22,-27 -36,-47 -41,-61 -3,-5 -5,-14 -7,-26 -1,-14 1,-31 8,-52 5,-17 14,-30 27,-40 18,-14 38,-23 59,-30 4,-1 7,-2 9,-2 5,0 8,2 11,4 1,1 5,5 13,11 5,3 8,7 8,11 0,3 -2,6 -7,9 -4,2 -11,5 -19,7 -27,7 -50,18 -68,34 -20,20 -24,44 -13,70 5,10 10,18 15,23 3,3 8,8 16,16 7,8 13,14 17,18 38,38 61,63 69,74 22,33 36,60 42,82 7,22 7,43 2,61 -6,18 -11,28 -14,33 -7,9 -15,18 -25,26 -12,8 -30,17 -53,28 -8,4 -22,7 -41,10 -5,1 -8,0 -11,-3 -3,-4 -4,-7 -3,-11 1,-2 1,-6 1,-10 0,-4 0,-7 1,-9 1,-4 4,-6 8,-7 18,-5 31,-9 39,-15l1 0c4,-1 10,-5 17,-10 7,-5 12,-8 13,-9 22,-14 36,-34 40,-60zm377 -385c2,-1 4,-2 6,-2 8,1 15,3 20,4 13,4 20,13 20,26 1,4 1,10 1,18 0,15 1,35 2,62 1,11 2,26 2,47 0,20 1,34 1,40l3 47c2,28 5,48 6,61 1,14 3,32 4,56 0,4 1,10 2,19 2,9 2,15 2,19 3,18 4,35 3,53 0,2 -1,4 -1,6 0,2 0,3 0,4 0,3 -2,11 -5,23 0,0 0,2 0,3 -1,2 -1,4 -1,5 -1,5 -2,7 -3,7 -1,2 -6,8 -13,19 -3,2 -6,3 -8,4 0,-1 -1,-3 -2,-5 -1,-3 -2,-4 -2,-5 -1,-3 -2,-8 -4,-17 -1,-8 -3,-15 -3,-20 0,-2 -1,-9 -2,-19 -2,-10 -2,-18 -2,-23 0,-6 -1,-14 -3,-24 -1,-10 -2,-17 -2,-20 0,-1 -1,-9 -2,-24 -2,-14 -3,-24 -4,-31 -1,-9 -2,-21 -5,-38 -2,-17 -3,-29 -3,-36 -4,-64 -5,-102 -4,-115 0,-7 0,-27 -2,-60 -1,-14 -1,-33 -1,-60l0 -24zm375 299c-2,-30 2,-65 12,-104 9,-32 18,-58 29,-77 3,-6 10,-15 20,-26 16,-20 44,-41 84,-64 20,-9 34,-16 45,-18 8,-3 19,-5 34,-8 2,0 5,1 10,2 7,4 18,9 32,16 1,1 3,2 6,5 3,5 2,9 -4,11 -8,3 -20,7 -36,11 -16,3 -26,6 -28,6 -21,7 -44,18 -68,33 -5,3 -18,13 -38,30 -21,17 -36,41 -45,72l-15 59c-1,2 -2,6 -2,10 0,5 0,8 0,10 -5,32 -5,60 1,83 5,26 12,45 19,57 16,25 36,43 61,55 19,10 40,16 63,20l13 0c15,0 27,2 35,6 3,1 5,2 6,1 5,0 10,3 15,8 7,9 5,16 -5,19 -3,1 -5,2 -8,2 -20,2 -39,2 -57,-1l-15 -3c-15,-1 -35,-10 -60,-25 -15,-8 -26,-15 -33,-21 -25,-21 -43,-46 -53,-75 -11,-31 -17,-62 -18,-94zm687 -11c-4,1 -10,1 -18,1 -39,5 -69,11 -89,16 -3,0 -8,1 -15,3 -7,2 -11,3 -14,4 -2,1 -6,1 -10,2 -5,1 -9,2 -11,3 0,2 0,6 -1,12 -2,6 -2,10 -3,13 -3,17 -5,29 -5,38 -3,18 -5,31 -6,39 -1,9 -2,14 -3,18 -4,22 -7,38 -9,49 -1,2 -1,5 -1,8 -2,9 -6,13 -15,12 -7,-2 -11,-4 -13,-4 -3,-1 -4,-4 -4,-9 1,-10 2,-25 4,-46l9 -90c2,-10 3,-25 5,-44 2,-20 4,-34 6,-44 1,-12 2,-29 4,-53 0,-5 1,-12 2,-22 1,-10 2,-17 3,-22 1,-10 5,-26 11,-50 6,-22 11,-38 14,-49 8,-21 19,-37 32,-47 3,-2 7,-6 13,-11 7,-6 21,-12 44,-16l2 0c14,-2 29,3 44,14 14,9 29,27 43,54 4,8 8,21 11,39l12 97c4,38 7,66 7,85 0,4 2,19 6,45 0,5 0,13 1,24 1,11 2,19 3,25 3,36 9,68 17,97 1,3 2,8 4,14 2,6 3,11 4,14 2,5 1,10 -2,13 -4,4 -9,5 -15,4 -3,0 -9,-3 -18,-9 0,0 -4,-3 -11,-8 -1,-2 -2,-3 -2,-5 -11,-43 -17,-67 -18,-73 -1,-7 -3,-18 -5,-32 -1,-14 -3,-24 -3,-31 -2,-14 -4,-38 -9,-73 0,-1 0,-3 -1,-5zm-151 -10c5,0 7,0 9,-1 2,0 5,-1 9,-3 3,-1 7,-2 10,-3 3,-1 6,-2 9,-3 12,-3 31,-6 56,-10 6,-1 16,-2 28,-4 13,-2 22,-3 28,-4l0 -21c0,-4 -1,-11 -2,-20 -1,-9 -2,-18 -3,-25 -1,-7 -1,-14 -1,-20 -3,-34 -7,-63 -11,-88 -4,-19 -12,-34 -23,-48 -2,-2 -5,-4 -8,-5 -9,-1 -17,1 -24,5 -20,14 -35,34 -44,61 -7,25 -12,41 -15,49 -1,4 -4,18 -7,41 -1,7 -2,16 -3,28 -1,12 -2,21 -3,28 0,2 0,5 0,9 -1,3 -2,6 -3,8 -2,9 -2,18 -2,26zm647 222c1,7 2,11 1,13 -4,6 -8,9 -11,9 -4,2 -10,2 -17,2l-25 0c-22,0 -40,-8 -54,-25 -19,-20 -32,-40 -39,-59 -8,-22 -12,-41 -13,-57 -2,-18 -2,-46 0,-83 0,-30 -1,-53 -2,-68 0,-21 0,-53 -2,-94l-3 -113c0,-5 0,-13 -2,-24 3,0 5,0 6,-1 6,0 13,2 21,6 6,3 9,9 11,17l3 25 6 94c0,6 0,15 1,26 0,12 0,20 0,26 1,38 2,65 2,83 0,10 0,25 0,45 -1,20 -1,34 -1,44 0,28 5,56 16,83 3,8 6,16 11,24 7,15 21,24 41,27 3,0 7,1 11,2 5,0 9,1 12,2 8,1 15,0 21,-2 1,-1 3,-2 6,-2z"/>
 </g>
</svg>
